<?xml version="1.0" encoding="UTF-8" standalone="no"?><svg xmlns="http://www.w3.org/2000/svg" xmlns:xlink="http://www.w3.org/1999/xlink" contentScriptType="application/ecmascript" contentStyleType="text/css" height="356px" preserveAspectRatio="none" style="width:115px;height:356px;background:#FFFFFF;" version="1.1" viewBox="0 0 115 356" width="115px" zoomAndPan="magnify"><defs><filter height="300%" id="ft6si9eq2zibh" width="300%" x="-1" y="-1"><feGaussianBlur result="blurOut" stdDeviation="2.0"/><feColorMatrix in="blurOut" result="blurOut2" type="matrix" values="0 0 0 0 0 0 0 0 0 0 0 0 0 0 0 0 0 0 .4 0"/><feOffset dx="4.0" dy="4.0" in="blurOut2" result="blurOut3"/><feBlend in="SourceGraphic" in2="blurOut3" mode="normal"/></filter></defs><g><ellipse cx="54.5" cy="20" fill="#000000" filter="url(#ft6si9eq2zibh)" rx="10" ry="10" style="stroke:none;stroke-width:1.0;"/><rect fill="#FEFECE" filter="url(#ft6si9eq2zibh)" height="33.9688" rx="12.5" ry="12.5" style="stroke:#A80036;stroke-width:1.5;" width="72" x="18.5" y="50"/><text fill="#000000" font-family="sans-serif" font-size="12" lengthAdjust="spacing" textLength="52" x="28.5" y="71.1387">Thread()</text><rect fill="#FEFECE" filter="url(#ft6si9eq2zibh)" height="33.9688" rx="12.5" ry="12.5" style="stroke:#A80036;stroke-width:1.5;" width="57" x="26" y="103.9688"/><text fill="#000000" font-family="sans-serif" font-size="12" lengthAdjust="spacing" textLength="37" x="36" y="125.1074">start()</text><rect fill="#000000" filter="url(#ft6si9eq2zibh)" height="6" rx="2.5" ry="2.5" style="stroke:#000000;stroke-width:1.0;" width="87" x="11" y="157.9375"/><polygon fill="#FEFECE" filter="url(#ft6si9eq2zibh)" points="25,183.9375,74,183.9375,84,200.9219,74,217.9063,25,217.9063" style="stroke:#A80036;stroke-width:1.5;"/><text fill="#000000" font-family="sans-serif" font-size="12" lengthAdjust="spacing" textLength="29" x="35" y="205.0762">run_()</text><rect fill="#000000" filter="url(#ft6si9eq2zibh)" height="6" rx="2.5" ry="2.5" style="stroke:#000000;stroke-width:1.0;" width="87" x="11" y="237.9063"/><rect fill="#FEFECE" filter="url(#ft6si9eq2zibh)" height="33.9688" rx="12.5" ry="12.5" style="stroke:#A80036;stroke-width:1.5;" width="51" x="29" y="263.9063"/><text fill="#000000" font-family="sans-serif" font-size="12" lengthAdjust="spacing" textLength="31" x="39" y="285.0449">join()</text><ellipse cx="54.5" cy="328.875" fill="#FFFFFF" filter="url(#ft6si9eq2zibh)" rx="11" ry="11" style="stroke:#000000;stroke-width:1.0;"/><ellipse cx="54.5" cy="328.875" fill="#000000" rx="6" ry="6" style="stroke:#7F7F7F;stroke-width:1.0;"/><line style="stroke:#A80036;stroke-width:1.5;" x1="54.5" x2="54.5" y1="30" y2="50"/><polygon fill="#A80036" points="50.5,40,54.5,50,58.5,40,54.5,44" style="stroke:#A80036;stroke-width:1.0;"/><line style="stroke:#A80036;stroke-width:1.5;" x1="54.5" x2="54.5" y1="83.9688" y2="103.9688"/><polygon fill="#A80036" points="50.5,93.9688,54.5,103.9688,58.5,93.9688,54.5,97.9688" style="stroke:#A80036;stroke-width:1.0;"/><line style="stroke:#A80036;stroke-width:1.5;" x1="49.5" x2="49.5" y1="163.9375" y2="183.9375"/><polygon fill="#A80036" points="45.5,173.9375,49.5,183.9375,53.5,173.9375,49.5,177.9375" style="stroke:#A80036;stroke-width:1.0;"/><line style="stroke:#A80036;stroke-width:1.5;" x1="49.5" x2="49.5" y1="217.9063" y2="237.9063"/><polygon fill="#A80036" points="45.5,227.9063,49.5,237.9063,53.5,227.9063,49.5,231.9063" style="stroke:#A80036;stroke-width:1.0;"/><line style="stroke:#A80036;stroke-width:1.5;" x1="54.5" x2="54.5" y1="137.9375" y2="157.9375"/><polygon fill="#A80036" points="50.5,147.9375,54.5,157.9375,58.5,147.9375,54.5,151.9375" style="stroke:#A80036;stroke-width:1.0;"/><line style="stroke:#A80036;stroke-width:1.5;" x1="54.5" x2="54.5" y1="243.9063" y2="263.9063"/><polygon fill="#A80036" points="50.5,253.9063,54.5,263.9063,58.5,253.9063,54.5,257.9063" style="stroke:#A80036;stroke-width:1.0;"/><line style="stroke:#A80036;stroke-width:1.5;" x1="54.5" x2="54.5" y1="297.875" y2="317.875"/><polygon fill="#A80036" points="50.5,307.875,54.5,317.875,58.5,307.875,54.5,311.875" style="stroke:#A80036;stroke-width:1.0;"/><!--MD5=[333c11e435de3f46f00a379b4619eb52]
@startuml
start

:Thread();
:start();
fork
:run_()>
end fork
:join();

stop
@enduml

PlantUML version 1.2021.13beta6(Unknown compile time)
(GPL source distribution)
Java Runtime: Java(TM) SE Runtime Environment
JVM: Java HotSpot(TM) 64-Bit Server VM
Default Encoding: UTF-8
Language: en
Country: US
--></g></svg>